<svg width="33" height="32" viewBox="0 0 33 32" fill="none" xmlns="http://www.w3.org/2000/svg">
<rect x="0.666748" width="32" height="32" rx="16" fill="#D0DDFE"/>
<path fill-rule="evenodd" clip-rule="evenodd" d="M21.2969 11.0096C19.9801 9.69198 18.2289 8.96558 16.3633 8.96478C12.5177 8.96478 9.38886 12.092 9.38806 15.936C9.38646 17.1592 9.70726 18.3616 10.3185 19.4216L9.32886 23.0344L13.0265 22.0648C14.0497 22.6216 15.1953 22.9136 16.3601 22.9136H16.3633C20.2073 22.9136 23.3361 19.7856 23.3377 15.9416C23.3385 14.0792 22.6137 12.328 21.2969 11.0096Z" stroke="#0060AE" stroke-width="1.2" stroke-linecap="round" stroke-linejoin="round"/>
<path d="M17.2097 17.248L17.5345 16.9256C17.8329 16.6296 18.3049 16.592 18.6489 16.8336C18.9817 17.0672 19.2825 17.2768 19.5625 17.472C20.0073 17.7808 20.0609 18.4144 19.6777 18.7968L19.3905 19.084" stroke="#0060AE" stroke-width="1.2" stroke-linecap="round" stroke-linejoin="round"/>
<path d="M13.2498 12.9432L13.537 12.656C13.9194 12.2736 14.553 12.3272 14.8618 12.7712C15.0562 13.0512 15.2658 13.352 15.5002 13.6848C15.7418 14.0288 15.705 14.5008 15.4082 14.7992L15.0858 15.124" stroke="#0060AE" stroke-width="1.2" stroke-linecap="round" stroke-linejoin="round"/>
<path d="M19.3906 19.084C18.2058 20.2632 16.2146 19.2616 14.6426 17.6888" stroke="#0060AE" stroke-width="1.2" stroke-linecap="round" stroke-linejoin="round"/>
<path d="M14.6441 17.6912C13.0721 16.1184 12.0705 14.128 13.2497 12.9432" stroke="#0060AE" stroke-width="1.2" stroke-linecap="round" stroke-linejoin="round"/>
<path d="M15.0857 15.124C15.3409 15.5264 15.6681 15.9248 16.0377 16.2944L16.0393 16.296C16.4089 16.6656 16.8073 16.9928 17.2097 17.248" stroke="#0060AE" stroke-width="1.2" stroke-linecap="round" stroke-linejoin="round"/>
</svg>
